<svg width="800" height="800" viewBox="0 0 800 800" fill="none" xmlns="http://www.w3.org/2000/svg">
<g clip-path="url(#clip0_1_10)">
<path d="M375 14.4338C390.47 5.50213 409.53 5.50212 425 14.4338L721.41 185.566C736.88 194.498 746.41 211.004 746.41 228.868V571.132C746.41 588.996 736.88 605.502 721.41 614.434L425 785.566C409.53 794.498 390.47 794.498 375 785.566L78.5899 614.434C63.1198 605.502 53.5898 588.996 53.5898 571.132V228.868C53.5898 211.004 63.1198 194.498 78.5898 185.566L375 14.4338Z" fill="#ACACAC"/>
<path d="M327.894 156.552C357.777 142.086 392.5 163.855 392.5 197.056V205.802C392.5 211.969 390.599 217.986 387.057 223.034L355.222 268.399C353.45 270.923 352.5 273.932 352.5 277.016V338.277L385.083 308.163C385.36 307.907 385.608 307.62 385.82 307.308L445.131 220.319C445.376 219.96 445.667 219.634 445.997 219.35L472.947 196.116C473.977 195.228 475.124 194.483 476.354 193.904L500 182.777L487.5 215.277L527.176 236.083C528.04 236.536 528.752 237.232 529.226 238.085L591.234 349.789C596.088 358.532 596.266 369.118 591.71 378.02L580.036 400.822C578.681 403.469 575.331 404.355 572.845 402.726L492.717 350.197C489.378 348.008 487.048 344.578 486.246 340.667L482.123 320.567C481.663 318.325 478.408 318.489 478.175 320.766L475.756 344.467C474.951 352.352 477.3 360.234 482.288 366.394L514.054 405.614C520 412.956 522.14 422.67 519.83 431.831L510.499 468.834C509.538 472.643 507.121 475.924 503.768 477.971L479.5 492.777L509 496.277H546.5L589.645 493.099C592.489 492.889 595.334 493.495 597.847 494.845L614.798 503.952C622.826 508.266 628.458 515.996 630.104 524.96L635.416 553.874C635.98 556.946 633.621 559.777 630.498 559.777H594.871C591.792 559.777 589.444 557.021 589.935 553.981L593.065 534.573C593.555 531.534 591.208 528.777 588.129 528.777H553.104C552.703 528.777 552.303 528.826 551.913 528.922L452.415 553.344C446.432 554.812 440.159 552.473 436.599 547.446L426.636 533.38C420.419 524.603 411.263 518.343 400.828 515.734L381 510.777L398.78 518.748C405.864 521.924 411.099 528.175 412.982 535.706C413.304 536.992 412.931 538.353 411.999 539.296L348.062 603.999C336.214 615.99 321.525 624.791 305.363 629.584L290.002 634.139C268.923 640.39 250.492 653.414 237.561 671.195L233.871 676.268C229.179 682.72 220.256 684.37 213.566 680.023L102.219 607.669C99.539 605.928 99.1586 602.154 101.437 599.912L159.5 542.777L297.5 400.777L275.578 414.317C267.682 419.194 258.584 421.777 249.304 421.777H195.5L283.5 363.777L177.867 410.256C173.544 412.158 168.579 411.913 164.464 409.595L135.5 393.277L251.5 313.777L126.355 374.481C120.979 377.089 114.567 376.258 110.034 372.363L82 348.277L251.5 254.277L87.2783 321.951C78.251 325.671 68.1321 319.912 66.7207 310.251L63 284.777L327.894 156.552ZM615.08 434.712C616.59 433.956 618.379 434.013 619.838 434.863L641.073 447.251C641.357 447.417 641.624 447.61 641.87 447.828L658.735 462.777C661.161 464.927 660.931 468.781 658.268 470.628L631.516 489.176C628.765 491.083 624.954 489.801 623.914 486.62L619.453 472.974C618.454 469.918 614.871 468.586 612.118 470.246L593 481.777L542 486.777L499.5 488.5L509.513 482.344C512.72 480.372 515.068 477.266 516.092 473.644L521.5 454.5L577.897 452.811C578.624 452.789 579.337 452.609 579.986 452.283L615.08 434.712ZM521.5 224.277L496.5 211.777L508.809 199.942C509.265 199.503 509.801 199.155 510.388 198.916L536.5 188.277L521.5 224.277Z" fill="#262626"/>
<path d="M375 14.4337C390.47 5.50212 409.53 5.50211 425 14.4337L721.41 185.567C736.88 194.498 746.41 211.004 746.41 228.867V571.132C746.41 588.995 736.88 605.502 721.41 614.434L425 785.567C409.53 794.498 390.47 794.498 375 785.567L78.5898 614.434C63.1199 605.502 53.59 588.996 53.5898 571.133V228.867C53.5899 211.004 63.1199 194.498 78.5898 185.567L375 14.4337ZM425 89.4337C409.53 80.5021 390.47 80.5021 375 89.4337L143.542 223.067C128.072 231.998 118.542 248.504 118.542 266.367V533.633C118.542 551.496 128.072 568.002 143.542 576.934L375 710.567C390.47 719.498 409.53 719.498 425 710.567L656.458 576.934C671.928 568.002 681.458 551.496 681.458 533.633V266.367C681.458 248.504 671.928 231.998 656.458 223.067L425 89.4337Z" fill="#454545"/>
</g>
<defs>
<clipPath id="clip0_1_10">
<rect width="800" height="800" fill="white"/>
</clipPath>
</defs>
</svg>
